%TF.GenerationSoftware,KiCad,Pcbnew,10.0.3*%
%TF.CreationDate,2026-05-30T22:41:24+05:30*%
%TF.ProjectId,Simple_LED,53696d70-6c65-45f4-9c45-442e6b696361,rev?*%
%TF.SameCoordinates,Original*%
%TF.FileFunction,Copper,L1,Top*%
%TF.FilePolarity,Positive*%
%FSLAX46Y46*%
G04 Gerber Fmt 4.6, Leading zero omitted, Abs format (unit mm)*
G04 Created by KiCad (PCBNEW 10.0.3) date 2026-05-30 22:41:24*
%MOMM*%
%LPD*%
G01*
G04 APERTURE LIST*
%TA.AperFunction,ComponentPad*%
%ADD10C,2.000000*%
%TD*%
%TA.AperFunction,ComponentPad*%
%ADD11C,1.600000*%
%TD*%
%TA.AperFunction,ComponentPad*%
%ADD12R,1.800000X1.800000*%
%TD*%
%TA.AperFunction,ComponentPad*%
%ADD13C,1.800000*%
%TD*%
%TA.AperFunction,SMDPad,CuDef*%
%ADD14R,3.300000X3.500000*%
%TD*%
%TA.AperFunction,SMDPad,CuDef*%
%ADD15C,10.200000*%
%TD*%
%TA.AperFunction,Conductor*%
%ADD16C,0.200000*%
%TD*%
G04 APERTURE END LIST*
D10*
%TO.P,SW1,1,1_1*%
%TO.N,Net-(BT1-+)*%
X112960000Y-62690000D03*
X119460000Y-62690000D03*
%TO.P,SW1,2,2_2*%
%TO.N,Net-(R1-Pad2)*%
X112960000Y-67190000D03*
X119460000Y-67190000D03*
%TD*%
D11*
%TO.P,R1,1*%
%TO.N,Net-(D1-A)*%
X144580000Y-62500000D03*
%TO.P,R1,2*%
%TO.N,Net-(R1-Pad2)*%
X134420000Y-62500000D03*
%TD*%
D12*
%TO.P,D1,1,K_1*%
%TO.N,GND*%
X134000000Y-80500000D03*
D13*
%TO.P,D1,2,A_2*%
%TO.N,Net-(D1-A)*%
X136540000Y-80500000D03*
%TD*%
D14*
%TO.P,BT1,1,+_1*%
%TO.N,Net-(BT1-+)*%
X99500000Y-72600000D03*
X99500000Y-88400000D03*
D15*
%TO.P,BT1,2,-_2*%
%TO.N,GND*%
X99500000Y-80500000D03*
%TD*%
%TO.N,Net-(BT1-+)*%
D16*
X94100000Y-78000000D02*
X99500000Y-72600000D01*
X94100000Y-83000000D02*
X94100000Y-78000000D01*
X99500000Y-88400000D02*
X94100000Y-83000000D01*
%TO.N,Net-(R1-Pad2)*%
X119460000Y-67190000D02*
X112960000Y-67190000D01*
%TO.N,Net-(BT1-+)*%
X119460000Y-62690000D02*
X119460000Y-62540000D01*
X119460000Y-62540000D02*
X119310000Y-62690000D01*
X119310000Y-62690000D02*
X112960000Y-62690000D01*
%TO.N,Net-(R1-Pad2)*%
X119460000Y-67190000D02*
X124150000Y-62500000D01*
X124150000Y-62500000D02*
X134420000Y-62500000D01*
%TO.N,Net-(BT1-+)*%
X112960000Y-62690000D02*
X101310000Y-62690000D01*
X101310000Y-62690000D02*
X99500000Y-64500000D01*
X99500000Y-64500000D02*
X99500000Y-72600000D01*
%TO.N,GND*%
X134000000Y-80500000D02*
X99500000Y-80500000D01*
%TO.N,Net-(D1-A)*%
X144500000Y-80500000D02*
X136540000Y-80500000D01*
X144580000Y-80420000D02*
X144500000Y-80500000D01*
X144580000Y-62500000D02*
X144580000Y-80420000D01*
%TO.N,Net-(R1-Pad2)*%
X134230000Y-62690000D02*
X134420000Y-62500000D01*
%TO.N,Net-(BT1-+)*%
X112960000Y-62690000D02*
X112960000Y-62960000D01*
%TD*%
M02*
