%TF.GenerationSoftware,KiCad,Pcbnew,10.0.3*%
%TF.CreationDate,2026-05-30T22:41:24+05:30*%
%TF.ProjectId,Simple_LED,53696d70-6c65-45f4-9c45-442e6b696361,rev?*%
%TF.SameCoordinates,Original*%
%TF.FileFunction,Legend,Top*%
%TF.FilePolarity,Positive*%
%FSLAX46Y46*%
G04 Gerber Fmt 4.6, Leading zero omitted, Abs format (unit mm)*
G04 Created by KiCad (PCBNEW 10.0.3) date 2026-05-30 22:41:24*
%MOMM*%
%LPD*%
G01*
G04 APERTURE LIST*
%ADD10C,0.300000*%
%ADD11C,0.150000*%
%ADD12C,0.120000*%
G04 APERTURE END LIST*
D10*
X126554510Y-92300828D02*
X126554510Y-90800828D01*
X126554510Y-90800828D02*
X127125939Y-90800828D01*
X127125939Y-90800828D02*
X127268796Y-90872257D01*
X127268796Y-90872257D02*
X127340225Y-90943685D01*
X127340225Y-90943685D02*
X127411653Y-91086542D01*
X127411653Y-91086542D02*
X127411653Y-91300828D01*
X127411653Y-91300828D02*
X127340225Y-91443685D01*
X127340225Y-91443685D02*
X127268796Y-91515114D01*
X127268796Y-91515114D02*
X127125939Y-91586542D01*
X127125939Y-91586542D02*
X126554510Y-91586542D01*
X128625939Y-92229400D02*
X128483082Y-92300828D01*
X128483082Y-92300828D02*
X128197368Y-92300828D01*
X128197368Y-92300828D02*
X128054510Y-92229400D01*
X128054510Y-92229400D02*
X127983082Y-92086542D01*
X127983082Y-92086542D02*
X127983082Y-91515114D01*
X127983082Y-91515114D02*
X128054510Y-91372257D01*
X128054510Y-91372257D02*
X128197368Y-91300828D01*
X128197368Y-91300828D02*
X128483082Y-91300828D01*
X128483082Y-91300828D02*
X128625939Y-91372257D01*
X128625939Y-91372257D02*
X128697368Y-91515114D01*
X128697368Y-91515114D02*
X128697368Y-91657971D01*
X128697368Y-91657971D02*
X127983082Y-91800828D01*
X129340224Y-92300828D02*
X129340224Y-90800828D01*
X129983082Y-92300828D02*
X129983082Y-91515114D01*
X129983082Y-91515114D02*
X129911653Y-91372257D01*
X129911653Y-91372257D02*
X129768796Y-91300828D01*
X129768796Y-91300828D02*
X129554510Y-91300828D01*
X129554510Y-91300828D02*
X129411653Y-91372257D01*
X129411653Y-91372257D02*
X129340224Y-91443685D01*
X130911653Y-92300828D02*
X130768796Y-92229400D01*
X130768796Y-92229400D02*
X130697367Y-92086542D01*
X130697367Y-92086542D02*
X130697367Y-90800828D01*
X132125939Y-92300828D02*
X132125939Y-91515114D01*
X132125939Y-91515114D02*
X132054510Y-91372257D01*
X132054510Y-91372257D02*
X131911653Y-91300828D01*
X131911653Y-91300828D02*
X131625939Y-91300828D01*
X131625939Y-91300828D02*
X131483081Y-91372257D01*
X132125939Y-92229400D02*
X131983081Y-92300828D01*
X131983081Y-92300828D02*
X131625939Y-92300828D01*
X131625939Y-92300828D02*
X131483081Y-92229400D01*
X131483081Y-92229400D02*
X131411653Y-92086542D01*
X131411653Y-92086542D02*
X131411653Y-91943685D01*
X131411653Y-91943685D02*
X131483081Y-91800828D01*
X131483081Y-91800828D02*
X131625939Y-91729400D01*
X131625939Y-91729400D02*
X131983081Y-91729400D01*
X131983081Y-91729400D02*
X132125939Y-91657971D01*
X133983081Y-91300828D02*
X133983081Y-92800828D01*
X133983081Y-91372257D02*
X134125939Y-91300828D01*
X134125939Y-91300828D02*
X134411653Y-91300828D01*
X134411653Y-91300828D02*
X134554510Y-91372257D01*
X134554510Y-91372257D02*
X134625939Y-91443685D01*
X134625939Y-91443685D02*
X134697367Y-91586542D01*
X134697367Y-91586542D02*
X134697367Y-92015114D01*
X134697367Y-92015114D02*
X134625939Y-92157971D01*
X134625939Y-92157971D02*
X134554510Y-92229400D01*
X134554510Y-92229400D02*
X134411653Y-92300828D01*
X134411653Y-92300828D02*
X134125939Y-92300828D01*
X134125939Y-92300828D02*
X133983081Y-92229400D01*
X135911653Y-92229400D02*
X135768796Y-92300828D01*
X135768796Y-92300828D02*
X135483082Y-92300828D01*
X135483082Y-92300828D02*
X135340224Y-92229400D01*
X135340224Y-92229400D02*
X135268796Y-92086542D01*
X135268796Y-92086542D02*
X135268796Y-91515114D01*
X135268796Y-91515114D02*
X135340224Y-91372257D01*
X135340224Y-91372257D02*
X135483082Y-91300828D01*
X135483082Y-91300828D02*
X135768796Y-91300828D01*
X135768796Y-91300828D02*
X135911653Y-91372257D01*
X135911653Y-91372257D02*
X135983082Y-91515114D01*
X135983082Y-91515114D02*
X135983082Y-91657971D01*
X135983082Y-91657971D02*
X135268796Y-91800828D01*
X136625938Y-92300828D02*
X136625938Y-90800828D01*
X137268796Y-92300828D02*
X137268796Y-91515114D01*
X137268796Y-91515114D02*
X137197367Y-91372257D01*
X137197367Y-91372257D02*
X137054510Y-91300828D01*
X137054510Y-91300828D02*
X136840224Y-91300828D01*
X136840224Y-91300828D02*
X136697367Y-91372257D01*
X136697367Y-91372257D02*
X136625938Y-91443685D01*
X138197367Y-92300828D02*
X138054510Y-92229400D01*
X138054510Y-92229400D02*
X137983081Y-92086542D01*
X137983081Y-92086542D02*
X137983081Y-90800828D01*
X139411653Y-92300828D02*
X139411653Y-91515114D01*
X139411653Y-91515114D02*
X139340224Y-91372257D01*
X139340224Y-91372257D02*
X139197367Y-91300828D01*
X139197367Y-91300828D02*
X138911653Y-91300828D01*
X138911653Y-91300828D02*
X138768795Y-91372257D01*
X139411653Y-92229400D02*
X139268795Y-92300828D01*
X139268795Y-92300828D02*
X138911653Y-92300828D01*
X138911653Y-92300828D02*
X138768795Y-92229400D01*
X138768795Y-92229400D02*
X138697367Y-92086542D01*
X138697367Y-92086542D02*
X138697367Y-91943685D01*
X138697367Y-91943685D02*
X138768795Y-91800828D01*
X138768795Y-91800828D02*
X138911653Y-91729400D01*
X138911653Y-91729400D02*
X139268795Y-91729400D01*
X139268795Y-91729400D02*
X139411653Y-91657971D01*
X141268795Y-91300828D02*
X141268795Y-92800828D01*
X141268795Y-91372257D02*
X141411653Y-91300828D01*
X141411653Y-91300828D02*
X141697367Y-91300828D01*
X141697367Y-91300828D02*
X141840224Y-91372257D01*
X141840224Y-91372257D02*
X141911653Y-91443685D01*
X141911653Y-91443685D02*
X141983081Y-91586542D01*
X141983081Y-91586542D02*
X141983081Y-92015114D01*
X141983081Y-92015114D02*
X141911653Y-92157971D01*
X141911653Y-92157971D02*
X141840224Y-92229400D01*
X141840224Y-92229400D02*
X141697367Y-92300828D01*
X141697367Y-92300828D02*
X141411653Y-92300828D01*
X141411653Y-92300828D02*
X141268795Y-92229400D01*
X142483081Y-91300828D02*
X142840224Y-92300828D01*
X143197367Y-91300828D02*
X142840224Y-92300828D01*
X142840224Y-92300828D02*
X142697367Y-92657971D01*
X142697367Y-92657971D02*
X142625938Y-92729400D01*
X142625938Y-92729400D02*
X142483081Y-92800828D01*
X144411653Y-92300828D02*
X144411653Y-91515114D01*
X144411653Y-91515114D02*
X144340224Y-91372257D01*
X144340224Y-91372257D02*
X144197367Y-91300828D01*
X144197367Y-91300828D02*
X143911653Y-91300828D01*
X143911653Y-91300828D02*
X143768795Y-91372257D01*
X144411653Y-92229400D02*
X144268795Y-92300828D01*
X144268795Y-92300828D02*
X143911653Y-92300828D01*
X143911653Y-92300828D02*
X143768795Y-92229400D01*
X143768795Y-92229400D02*
X143697367Y-92086542D01*
X143697367Y-92086542D02*
X143697367Y-91943685D01*
X143697367Y-91943685D02*
X143768795Y-91800828D01*
X143768795Y-91800828D02*
X143911653Y-91729400D01*
X143911653Y-91729400D02*
X144268795Y-91729400D01*
X144268795Y-91729400D02*
X144411653Y-91657971D01*
X145768796Y-92300828D02*
X145768796Y-91515114D01*
X145768796Y-91515114D02*
X145697367Y-91372257D01*
X145697367Y-91372257D02*
X145554510Y-91300828D01*
X145554510Y-91300828D02*
X145268796Y-91300828D01*
X145268796Y-91300828D02*
X145125938Y-91372257D01*
X145768796Y-92229400D02*
X145625938Y-92300828D01*
X145625938Y-92300828D02*
X145268796Y-92300828D01*
X145268796Y-92300828D02*
X145125938Y-92229400D01*
X145125938Y-92229400D02*
X145054510Y-92086542D01*
X145054510Y-92086542D02*
X145054510Y-91943685D01*
X145054510Y-91943685D02*
X145125938Y-91800828D01*
X145125938Y-91800828D02*
X145268796Y-91729400D01*
X145268796Y-91729400D02*
X145625938Y-91729400D01*
X145625938Y-91729400D02*
X145768796Y-91657971D01*
X146483081Y-92300828D02*
X146483081Y-91300828D01*
X146483081Y-91586542D02*
X146554510Y-91443685D01*
X146554510Y-91443685D02*
X146625939Y-91372257D01*
X146625939Y-91372257D02*
X146768796Y-91300828D01*
X146768796Y-91300828D02*
X146911653Y-91300828D01*
D11*
X114876667Y-61097200D02*
X115019524Y-61144819D01*
X115019524Y-61144819D02*
X115257619Y-61144819D01*
X115257619Y-61144819D02*
X115352857Y-61097200D01*
X115352857Y-61097200D02*
X115400476Y-61049580D01*
X115400476Y-61049580D02*
X115448095Y-60954342D01*
X115448095Y-60954342D02*
X115448095Y-60859104D01*
X115448095Y-60859104D02*
X115400476Y-60763866D01*
X115400476Y-60763866D02*
X115352857Y-60716247D01*
X115352857Y-60716247D02*
X115257619Y-60668628D01*
X115257619Y-60668628D02*
X115067143Y-60621009D01*
X115067143Y-60621009D02*
X114971905Y-60573390D01*
X114971905Y-60573390D02*
X114924286Y-60525771D01*
X114924286Y-60525771D02*
X114876667Y-60430533D01*
X114876667Y-60430533D02*
X114876667Y-60335295D01*
X114876667Y-60335295D02*
X114924286Y-60240057D01*
X114924286Y-60240057D02*
X114971905Y-60192438D01*
X114971905Y-60192438D02*
X115067143Y-60144819D01*
X115067143Y-60144819D02*
X115305238Y-60144819D01*
X115305238Y-60144819D02*
X115448095Y-60192438D01*
X115781429Y-60144819D02*
X116019524Y-61144819D01*
X116019524Y-61144819D02*
X116210000Y-60430533D01*
X116210000Y-60430533D02*
X116400476Y-61144819D01*
X116400476Y-61144819D02*
X116638572Y-60144819D01*
X117543333Y-61144819D02*
X116971905Y-61144819D01*
X117257619Y-61144819D02*
X117257619Y-60144819D01*
X117257619Y-60144819D02*
X117162381Y-60287676D01*
X117162381Y-60287676D02*
X117067143Y-60382914D01*
X117067143Y-60382914D02*
X116971905Y-60430533D01*
X139333333Y-60584819D02*
X139000000Y-60108628D01*
X138761905Y-60584819D02*
X138761905Y-59584819D01*
X138761905Y-59584819D02*
X139142857Y-59584819D01*
X139142857Y-59584819D02*
X139238095Y-59632438D01*
X139238095Y-59632438D02*
X139285714Y-59680057D01*
X139285714Y-59680057D02*
X139333333Y-59775295D01*
X139333333Y-59775295D02*
X139333333Y-59918152D01*
X139333333Y-59918152D02*
X139285714Y-60013390D01*
X139285714Y-60013390D02*
X139238095Y-60061009D01*
X139238095Y-60061009D02*
X139142857Y-60108628D01*
X139142857Y-60108628D02*
X138761905Y-60108628D01*
X140285714Y-60584819D02*
X139714286Y-60584819D01*
X140000000Y-60584819D02*
X140000000Y-59584819D01*
X140000000Y-59584819D02*
X139904762Y-59727676D01*
X139904762Y-59727676D02*
X139809524Y-59822914D01*
X139809524Y-59822914D02*
X139714286Y-59870533D01*
X134531905Y-76994819D02*
X134531905Y-75994819D01*
X134531905Y-75994819D02*
X134770000Y-75994819D01*
X134770000Y-75994819D02*
X134912857Y-76042438D01*
X134912857Y-76042438D02*
X135008095Y-76137676D01*
X135008095Y-76137676D02*
X135055714Y-76232914D01*
X135055714Y-76232914D02*
X135103333Y-76423390D01*
X135103333Y-76423390D02*
X135103333Y-76566247D01*
X135103333Y-76566247D02*
X135055714Y-76756723D01*
X135055714Y-76756723D02*
X135008095Y-76851961D01*
X135008095Y-76851961D02*
X134912857Y-76947200D01*
X134912857Y-76947200D02*
X134770000Y-76994819D01*
X134770000Y-76994819D02*
X134531905Y-76994819D01*
X136055714Y-76994819D02*
X135484286Y-76994819D01*
X135770000Y-76994819D02*
X135770000Y-75994819D01*
X135770000Y-75994819D02*
X135674762Y-76137676D01*
X135674762Y-76137676D02*
X135579524Y-76232914D01*
X135579524Y-76232914D02*
X135484286Y-76280533D01*
X107431009Y-81285714D02*
X107478628Y-81142857D01*
X107478628Y-81142857D02*
X107526247Y-81095238D01*
X107526247Y-81095238D02*
X107621485Y-81047619D01*
X107621485Y-81047619D02*
X107764342Y-81047619D01*
X107764342Y-81047619D02*
X107859580Y-81095238D01*
X107859580Y-81095238D02*
X107907200Y-81142857D01*
X107907200Y-81142857D02*
X107954819Y-81238095D01*
X107954819Y-81238095D02*
X107954819Y-81619047D01*
X107954819Y-81619047D02*
X106954819Y-81619047D01*
X106954819Y-81619047D02*
X106954819Y-81285714D01*
X106954819Y-81285714D02*
X107002438Y-81190476D01*
X107002438Y-81190476D02*
X107050057Y-81142857D01*
X107050057Y-81142857D02*
X107145295Y-81095238D01*
X107145295Y-81095238D02*
X107240533Y-81095238D01*
X107240533Y-81095238D02*
X107335771Y-81142857D01*
X107335771Y-81142857D02*
X107383390Y-81190476D01*
X107383390Y-81190476D02*
X107431009Y-81285714D01*
X107431009Y-81285714D02*
X107431009Y-81619047D01*
X106954819Y-80761904D02*
X106954819Y-80190476D01*
X107954819Y-80476190D02*
X106954819Y-80476190D01*
X107954819Y-79333333D02*
X107954819Y-79904761D01*
X107954819Y-79619047D02*
X106954819Y-79619047D01*
X106954819Y-79619047D02*
X107097676Y-79714285D01*
X107097676Y-79714285D02*
X107192914Y-79809523D01*
X107192914Y-79809523D02*
X107240533Y-79904761D01*
%TO.C,SW1*%
D12*
X112710000Y-64190000D02*
X112710000Y-65690000D01*
X113960000Y-68190000D02*
X118460000Y-68190000D01*
X118460000Y-61690000D02*
X113960000Y-61690000D01*
X119710000Y-65690000D02*
X119710000Y-64190000D01*
%TO.C,R1*%
X143540000Y-62500000D02*
X142770000Y-62500000D01*
X135460000Y-62500000D02*
X136230000Y-62500000D01*
X136230000Y-61130000D02*
X142770000Y-61130000D01*
X142770000Y-63870000D01*
X136230000Y-63870000D01*
X136230000Y-61130000D01*
%TO.C,D1*%
X132710000Y-78955000D02*
X132710000Y-82045000D01*
X132710000Y-78955170D02*
G75*
G02*
X138260000Y-80500000I2560000J-1544830D01*
G01*
X138260000Y-80500000D02*
G75*
G02*
X132710000Y-82044830I-2990000J0D01*
G01*
X137770000Y-80500000D02*
G75*
G02*
X132770000Y-80500000I-2500000J0D01*
G01*
X132770000Y-80500000D02*
G75*
G02*
X137770000Y-80500000I2500000J0D01*
G01*
%TO.C,BT1*%
X102950000Y-73750000D02*
X105550000Y-76350000D01*
X101500000Y-73750000D02*
X102950000Y-73750000D01*
X97500000Y-73750000D02*
X95400000Y-73750000D01*
X106350000Y-76350000D02*
X106350000Y-84650000D01*
X105550000Y-76350000D02*
X106350000Y-76350000D01*
X106350000Y-84650000D02*
X105550000Y-84650000D01*
X105550000Y-84650000D02*
X102950000Y-87250000D01*
X102950000Y-87250000D02*
X101500000Y-87250000D01*
X97500000Y-87250000D02*
X95400000Y-87250000D01*
X93900000Y-75200000D02*
G75*
G02*
X95450000Y-73750000I1499999J-49999D01*
G01*
X94300000Y-76000000D02*
G75*
G02*
X93915840Y-75085385I600001J790000D01*
G01*
X93915840Y-85914615D02*
G75*
G02*
X94300000Y-85000000I984160J124615D01*
G01*
X95450000Y-87250000D02*
G75*
G02*
X93900000Y-85800000I-50000J1500000D01*
G01*
%TD*%
M02*
